<svg width="342" height="341" xmlns="http://www.w3.org/2000/svg" xmlns:xlink="http://www.w3.org/1999/xlink" xml:space="preserve" overflow="hidden"><defs><clipPath id="clip0"><rect x="702" y="480" width="342" height="341"/></clipPath><clipPath id="clip1"><rect x="703" y="481" width="340" height="340"/></clipPath><clipPath id="clip2"><rect x="703" y="481" width="340" height="340"/></clipPath><clipPath id="clip3"><rect x="703" y="481" width="340" height="340"/></clipPath></defs><g clip-path="url(#clip0)" transform="translate(-702 -480)"><g clip-path="url(#clip1)"><g clip-path="url(#clip2)"><g clip-path="url(#clip3)"><path d="M1000.5 523.5 745.5 523.5C729.852 523.5 717.167 536.185 717.167 551.833L717.167 707.667C717.167 723.314 729.852 736 745.5 736L844.667 736 844.667 750.167 766.75 750.167C755.014 750.167 745.5 759.68 745.5 771.417 745.5 775.329 748.671 778.5 752.583 778.5L993.417 778.5C997.329 778.5 1000.5 775.329 1000.5 771.417 1000.5 759.68 990.986 750.167 979.25 750.167L901.333 750.167 901.333 736 1000.5 736C1016.15 736 1028.83 723.314 1028.83 707.667L1028.83 551.833C1028.83 536.185 1016.15 523.5 1000.5 523.5ZM865.917 714.75C865.917 710.838 869.088 707.667 873 707.667 876.912 707.667 880.083 710.838 880.083 714.75 880.083 718.662 876.912 721.833 873 721.833 869.088 721.833 865.917 718.662 865.917 714.75ZM1007.58 686.417C1007.58 690.329 1004.41 693.5 1000.5 693.5L745.5 693.5C741.588 693.5 738.417 690.329 738.417 686.417L738.417 551.833C738.417 547.921 741.588 544.75 745.5 544.75L1000.5 544.75C1004.41 544.75 1007.58 547.921 1007.58 551.833Z" fill="#FFFFFF" fill-rule="nonzero" fill-opacity="1"/></g></g></g></g></svg>