<svg width="98" height="100" xmlns="http://www.w3.org/2000/svg" xmlns:xlink="http://www.w3.org/1999/xlink" xml:space="preserve" overflow="hidden"><defs><clipPath id="clip0"><rect x="782" y="202" width="98" height="100"/></clipPath><clipPath id="clip1"><rect x="783" y="203" width="96" height="99"/></clipPath><clipPath id="clip2"><rect x="783" y="203" width="96" height="99"/></clipPath><clipPath id="clip3"><rect x="783" y="203" width="96" height="99"/></clipPath></defs><g clip-path="url(#clip0)" transform="translate(-782 -202)"><g clip-path="url(#clip1)"><g clip-path="url(#clip2)"><g clip-path="url(#clip3)"><path d="M824.003 225.48C824.003 225.48 824.003 225.48 824.003 225.48 824.003 225.48 824.153 225.391 824.103 225.331L824.103 225.331C824.053 225.341 823.953 225.421 824.003 225.48Z" stroke="#0D0D0D" stroke-width="0.997403" stroke-linecap="butt" stroke-linejoin="miter" stroke-miterlimit="4" stroke-opacity="1" fill="none" fill-rule="nonzero"/><path d="M871.769 259.552C882.447 243.11 877.774 221.125 861.332 210.447 844.89 199.77 822.906 204.442 812.228 220.884 803.521 234.292 804.85 251.866 815.475 263.811" stroke="#0D0D0D" stroke-width="2.99221" stroke-linecap="butt" stroke-linejoin="miter" stroke-miterlimit="10" stroke-opacity="1" fill="none" fill-rule="nonzero"/><path d="M821.181 214.379C821.131 214.379 821.041 214.459 821.091 214.509L821.091 214.509C821.091 214.509 821.23 214.439 821.181 214.379Z" stroke="#0D0D0D" stroke-width="0.997403" stroke-linecap="butt" stroke-linejoin="miter" stroke-miterlimit="4" stroke-opacity="1" fill="none" fill-rule="nonzero"/><path d="M824.951 225.59C824.901 225.59 824.801 225.68 824.851 225.74L824.851 225.74C824.901 225.74 825.001 225.66 824.951 225.6Z" stroke="#0D0D0D" stroke-width="0.997403" stroke-linecap="butt" stroke-linejoin="miter" stroke-miterlimit="4" stroke-opacity="1" fill="none" fill-rule="nonzero"/><path d="M826.148 260.14 829.718 250.455 819.645 241.359 816.114 249.328 819.994 258.983" stroke="#0D0D0D" stroke-width="2.99221" stroke-linecap="round" stroke-linejoin="round" stroke-miterlimit="4" stroke-opacity="1" fill="none" fill-rule="nonzero"/><path d="M821.829 211.108 819.176 217.172 815.825 223.316 818.188 227.086 820.542 223.186 825.35 229.011 817.081 236.412 812.513 236.851 811.576 239.544 815.854 244.99 809.032 241.848 807.197 239.614" stroke="#0D0D0D" stroke-width="2.99221" stroke-linecap="butt" stroke-linejoin="round" stroke-miterlimit="4" stroke-opacity="1" fill="none" fill-rule="nonzero"/><path d="M822.976 214.818 827.325 223.885 833.199 219.127 835.025 210.878C835.025 210.878 830.596 210.838 822.976 214.818Z" stroke="#0D0D0D" stroke-width="2.99221" stroke-linecap="butt" stroke-linejoin="miter" stroke-miterlimit="10" stroke-opacity="1" fill="none" fill-rule="nonzero"/><path d="M865.256 213.521C860.967 215.766 856.808 217.97 856.808 217.97L848.549 220.543 843.293 218.708 837.927 223.575 839.922 226.568 835.364 229.201 835.743 231.405 840.849 232.243 845.557 234.826 841.737 235.764 839.483 234.277 835.354 235.275 832.75 242.516 834.865 246.256 839.074 246.426 840.56 254.904 843.552 256.819 846.325 258.724 852.31 243.892 848.829 242.506 848.23 239.175 851.681 240.511 853.417 240.95 855.81 237.938 858.803 243.374 863.451 240.232 866.812 246.865 872.188 235.893 875.559 229.65" stroke="#0D0D0D" stroke-width="2.99221" stroke-linecap="butt" stroke-linejoin="miter" stroke-miterlimit="10" stroke-opacity="1" fill="none" fill-rule="nonzero"/><path d="M806.529 289.743 818.627 289.743 853.097 276.956 875.18 261.766C875.11 261.686 875.06 261.616 874.99 261.546L873.405 259.971C870.781 257.337 866.423 257.976 863.301 260.19L850.165 267.76 844.999 270.752 822.896 270.752 822.896 268.758 836.62 268.758C840.131 268.658 842.904 264.768 842.804 261.227L842.714 260.34 818.208 260.34 808.743 268.658 806.529 268.658" stroke="#0D0D0D" stroke-width="2.99221" stroke-linecap="butt" stroke-linejoin="miter" stroke-miterlimit="10" stroke-opacity="1" fill="none" fill-rule="nonzero"/><path d="M790.321 265.406 806.539 265.406 806.539 296.296 801.043 296.296" stroke="#0D0D0D" stroke-width="2.99221" stroke-linecap="butt" stroke-linejoin="miter" stroke-miterlimit="10" stroke-opacity="1" fill="none" fill-rule="nonzero"/><path d="M783 265.406 801.213 265.406 801.213 300.236 783 300.236" stroke="#0D0D0D" stroke-width="0.997403" stroke-linecap="butt" stroke-linejoin="miter" stroke-miterlimit="4" stroke-opacity="1" fill="none" fill-rule="nonzero"/><path d="M794.221 290.381C792.86 290.381 791.757 291.484 791.757 292.845 791.757 294.206 792.86 295.309 794.221 295.309 795.581 295.309 796.684 294.206 796.684 292.845 796.69 291.49 795.596 290.387 794.241 290.381 794.234 290.381 794.227 290.381 794.221 290.381Z" stroke="#0D0D0D" stroke-width="0.997403" stroke-linecap="butt" stroke-linejoin="miter" stroke-miterlimit="4" stroke-opacity="1" fill="none" fill-rule="nonzero"/><path d="M783 265.406 801.213 265.406 801.213 300.236 783 300.236" stroke="#0D0D0D" stroke-width="2.99221" stroke-linecap="butt" stroke-linejoin="miter" stroke-miterlimit="10" stroke-opacity="1" fill="none" fill-rule="nonzero"/></g></g></g></g></svg>